#N canvas 65 92 450 300 10;
#X obj 144 154 + 1;
#X obj 185 153 - 1;
#X text 74 19 Seq7 Note;
#X obj 83 44 inlet;
#X obj 134 41 inlet;
#X obj 89 75 bng 15 250 50 0 empty empty empty 17 7 0 10 -262144 -1
-1;
#X obj 44 155 save;
#X obj 135 69 bng 15 250 50 0 empty empty empty 17 7 0 10 -262144 -1
-1;
#X obj 95 161 f 0;
#X obj 65 201 outlet;
#X obj 239 151 save;
#X obj 304 186 outlet;
#X obj 239 126 inlet;
#X obj 239 186 outlet;
#X connect 0 0 8 1;
#X connect 1 0 8 1;
#X connect 3 0 5 0;
#X connect 4 0 7 0;
#X connect 5 0 0 0;
#X connect 5 0 8 0;
#X connect 6 0 8 0;
#X connect 6 1 9 0;
#X connect 7 0 1 0;
#X connect 7 0 8 0;
#X connect 8 0 0 0;
#X connect 8 0 1 0;
#X connect 8 0 6 0;
#X connect 10 0 13 0;
#X connect 10 1 11 0;
#X connect 12 0 10 0;
