#N canvas 356 132 895 568 10;
#X obj 0 0 cnv 15 300 100 empty \$0Canvas Delay_\$1 20 12 0 14 -241291
-33289 0;
#X text 219 40 Dry;
#X obj 212 61 knob 32 32 0 1 0 0 \$0Dry \$0DryLoad empty 0 -8 0 8 -262144
-1 -1 2450 1;
#X obj 113 62 knob 32 32 0 1 0 1 \$0RightDelay \$0RightDelayLoad empty
0 -8 0 8 -262144 -1 -1 930 1;
#X obj 161 62 knob 32 32 0 1 0 1 \$0RightVolume \$0RightVolumeLoad
empty 0 -8 0 8 -262144 -1 -1 775 1;
#X text 8 42 Delay;
#X text 50 43 Volume;
#X obj 10 63 knob 32 32 0 1 0 1 \$0LeftDelay \$0LeftDelayLoad empty
0 -8 0 8 -262144 -1 -1 1240 1;
#X obj 53 62 knob 32 32 0 1 0 1 \$0LeftVolume \$0LeftVolumeLoad empty
0 -8 0 8 -262144 -1 -1 620 1;
#X text 110 42 Delay;
#X text 150 42 Volume;
#X text 11 29 Left Channel;
#X text 112 31 Right Channel;
#X obj 280 25 tgl 15 1 \$0On \$0OnLoad empty 17 7 0 10 -258113 -1 -1
1 1;
#X obj 9 209 Save \$0Dry;
#X obj 10 186 Save \$0RightVolume;
#X obj 9 163 Save \$0RightDelay;
#X obj 9 135 Save \$0LeftVolume;
#X obj 9 113 Save \$0LeftDelay;
#X obj 9 230 Save \$0On;
#X obj 9 351 f \$0;
#X obj 9 265 r \$0On;
#X msg 9 379 \; \$1Canvas color 11 12 12;
#X obj 9 323 spigot;
#X obj 9 301 b;
#X obj 42 302 != 0;
#X obj 10 485 f \$0;
#X obj 10 457 spigot;
#X obj 10 435 b;
#X obj 42 436 == 0;
#X obj 10 411 r \$0On;
#X msg 10 513 \; \$1Canvas color 15 12 12;
#X obj 151 268 f \$0;
#X obj 151 247 loadbang;
#X msg 151 300 \; \$1LeftDelayLoad 0.4 \; \$1LeftVolumeLoad 0.2 \;
\$1RightDelayLoad 0.3 \; \$1RightVolumeLoad 0.25 \; \$1DryLoad 0.5
;
#X floatatom 430 129 5 0 0 0 - - -;
#X floatatom 623 139 5 0 0 0 - - -;
#X obj 483 304 *~;
#X obj 653 335 +~;
#X obj 654 201 *~;
#X obj 468 199 *~;
#X obj 467 339 +~;
#X obj 689 301 *~;
#X text 577 324 Vu Delay R;
#X obj 510 447 spigot~;
#X obj 573 448 spigot~;
#X obj 549 492 +~;
#X obj 652 444 spigot~;
#X obj 708 446 spigot~;
#X obj 692 489 +~;
#X floatatom 430 83 5 0 0 0 - - -;
#X floatatom 483 78 5 0 0 0 - - -;
#X floatatom 623 87 5 0 0 0 - - -;
#X floatatom 669 87 5 0 0 0 - - -;
#X obj 430 107 expr pow($f1 \, 1)*2000;
#X obj 623 117 expr pow($f1 \, 1)*2000;
#X obj 430 30 r \$0LeftDelay;
#X obj 483 51 r \$0LeftVolume;
#X obj 623 40 r \$0RightDelay;
#X obj 669 64 r \$0RightVolume;
#X obj 498 283 r \$0Dry;
#X obj 704 277 r \$0Dry;
#X obj 755 417 r \$0On;
#X obj 483 220 r~ DelayInLeft\$1;
#X obj 688 228 r~ DelayInRight\$1;
#X obj 430 152 delread~ \$0DelayLeft \$1;
#X obj 492 251 delwrite~ \$0DelayRight 4000;
#X obj 699 251 delwrite~ \$0DelayLeft 4000;
#X obj 623 164 delread~ \$0DelayRight 400;
#X obj 548 518 s~ DelayOutLeft\$1;
#X obj 692 517 s~ DelayOutRight\$1;
#X obj 555 394 r~ DelayInLeft\$1;
#X obj 708 390 r~ DelayInRight\$1;
#X connect 20 0 22 0;
#X connect 21 0 24 0;
#X connect 21 0 25 0;
#X connect 23 0 20 0;
#X connect 24 0 23 0;
#X connect 25 0 23 1;
#X connect 26 0 31 0;
#X connect 27 0 26 0;
#X connect 28 0 27 0;
#X connect 29 0 27 1;
#X connect 30 0 28 0;
#X connect 30 0 29 0;
#X connect 32 0 34 0;
#X connect 33 0 32 0;
#X connect 35 0 65 0;
#X connect 36 0 68 0;
#X connect 37 0 41 1;
#X connect 38 0 47 0;
#X connect 39 0 38 0;
#X connect 40 0 41 0;
#X connect 41 0 44 0;
#X connect 42 0 38 1;
#X connect 44 1 46 0;
#X connect 45 0 46 1;
#X connect 46 0 69 0;
#X connect 47 1 49 0;
#X connect 48 0 49 1;
#X connect 49 0 70 0;
#X connect 50 0 54 0;
#X connect 51 0 40 1;
#X connect 52 0 55 0;
#X connect 53 0 39 1;
#X connect 54 0 35 0;
#X connect 55 0 36 0;
#X connect 56 0 50 0;
#X connect 57 0 51 0;
#X connect 58 0 52 0;
#X connect 59 0 53 0;
#X connect 60 0 37 1;
#X connect 61 0 42 1;
#X connect 62 0 48 1;
#X connect 62 0 47 1;
#X connect 62 0 45 1;
#X connect 62 0 44 1;
#X connect 63 0 37 0;
#X connect 63 0 66 0;
#X connect 64 0 42 0;
#X connect 64 0 67 0;
#X connect 65 0 40 0;
#X connect 68 0 39 0;
#X connect 71 0 45 0;
#X connect 72 0 48 0;
#X coords 0 -1 1 1 300 100 1 0 0;
