#N canvas 136 164 895 547 10;
#X obj 0 0 cnv 15 150 100 empty \$0Canvas Reverb_\$1 20 12 1 14 -225271
-33289 0;
#X obj 29 51 knob 32 32 0 1 0 1 \$0DryWet \$0DryWetLoad empty 0 -8
0 8 -262144 -1 -1 1550 1;
#X obj 85 52 knob 32 32 0 1 0 1 \$0RoomSize \$0RoomSizeLoad empty 0
-8 0 8 -262144 -1 -1 620 1;
#X obj 127 5 tgl 15 1 \$0On \$0OnLoad empty 17 7 0 10 -258113 -1 -1
1 1;
#X text 79 28 Room Size;
#X obj 291 -25 cnv 15 250 250 empty empty Reverb 20 12 0 14 -203904
-66577 0;
#X msg 311 116 wet \$1;
#X msg 376 116 dry \$1;
#X msg 439 130 roomsize \$1;
#X obj 376 176 freeverb~;
#X floatatom 376 91 5 0 0 0 - - -;
#X obj 281 200 cnv 15 350 200 empty empty Routing 20 12 0 14 -204786
-66577 0;
#X obj 297 278 spigot~;
#X obj 362 279 spigot~;
#X obj 348 323 +~;
#X obj 436 275 spigot~;
#X obj 499 276 spigot~;
#X obj 485 320 +~;
#X obj 339 59 expr 1-$f1;
#X text 26 30 Dry/Wet;
#X obj 166 10 Save \$0DryWet;
#X obj 166 31 Save \$0RoomSize;
#X obj 166 53 Save \$0On;
#X obj 538 233 r \$0On;
#X obj 213 159 r~ ReverbInLeft\$1;
#X obj 498 158 r~ ReverbInRight\$1;
#X obj 349 349 s~ ReverbOutLeft\$1;
#X obj 484 347 s~ ReverbOutRight\$1;
#X floatatom 311 94 5 0 0 0 - - -;
#X obj 311 32 r \$0DryWet;
#X obj 439 96 r \$0RoomSize;
#X obj 24 218 f \$0;
#X obj 24 128 r \$0On;
#X msg 24 246 \; \$1Canvas color 11 12 12;
#X obj 24 190 spigot;
#X obj 24 168 b;
#X obj 57 169 != 0;
#X obj 25 348 f \$0;
#X obj 25 320 spigot;
#X obj 25 298 b;
#X obj 57 299 == 0;
#X msg 27 376 \; \$1Canvas color 6 12 12;
#X obj 25 274 r \$0On;
#X text 551 7 Implements a reverb using freeverb~ The three firsts
inlets is one while the third inlet is the activation button;
#X obj 735 294 loadbang;
#X obj 735 321 f \$0;
#X msg 735 346 \; \$1DryWetLoad 0.5 \; \$1RoomSizeLoad 0.2;
#X obj 523 301 *~ 0.7;
#X obj 370 236 *~ 0.5;
#X obj 430 220 *~ 0.5;
#X connect 6 0 9 0;
#X connect 7 0 9 0;
#X connect 8 0 9 0;
#X connect 9 0 48 0;
#X connect 9 1 49 0;
#X connect 10 0 7 0;
#X connect 12 0 14 0;
#X connect 13 1 14 1;
#X connect 14 0 26 0;
#X connect 15 1 17 0;
#X connect 16 0 47 0;
#X connect 17 0 27 0;
#X connect 18 0 10 0;
#X connect 23 0 16 1;
#X connect 23 0 15 1;
#X connect 23 0 13 1;
#X connect 23 0 12 1;
#X connect 24 0 9 0;
#X connect 24 0 12 0;
#X connect 25 0 9 1;
#X connect 25 0 16 0;
#X connect 28 0 6 0;
#X connect 29 0 28 0;
#X connect 29 0 18 0;
#X connect 30 0 8 0;
#X connect 31 0 33 0;
#X connect 32 0 35 0;
#X connect 32 0 36 0;
#X connect 34 0 31 0;
#X connect 35 0 34 0;
#X connect 36 0 34 1;
#X connect 37 0 41 0;
#X connect 38 0 37 0;
#X connect 39 0 38 0;
#X connect 40 0 38 1;
#X connect 42 0 39 0;
#X connect 42 0 40 0;
#X connect 44 0 45 0;
#X connect 45 0 46 0;
#X connect 47 0 17 1;
#X connect 48 0 13 0;
#X connect 49 0 15 0;
#X coords 0 -1 1 1 150 100 1 0 0;
