#N canvas 505 381 628 300 10;
#X obj 133 97 + 1;
#X obj 172 98 - 1;
#X obj 43 97 save;
#X obj 91 97 f 0;
#X obj 258 84 save;
#X floatatom 296 108 5 0 0 0 - - -;
#X obj 281 158 f;
#X obj 76 148 f;
#X obj 98 57 inlet;
#X obj 146 57 inlet;
#X obj 258 58 inlet;
#X obj 366 65 inlet;
#X obj 374 182 outlet;
#X text 91 35 + Pitch;
#X text 141 35 - Pitch;
#X text 252 39 Pitch In;
#X text 354 41 Velocity In;
#X text 30 192 Note Sequencer Out;
#X text 165 192 Note Display Out;
#X text 244 219 Velocity Sequencer out;
#X text 334 196 Velocity Display out;
#X obj 76 173 s SeqNote;
#X obj 281 201 s SeqVel;
#X obj 483 193 outlet;
#X obj 469 143 sel \$1;
#X obj 169 177 s SeqNote\$0;
#X connect 0 0 3 1;
#X connect 1 0 3 1;
#X connect 2 0 3 0;
#X connect 3 0 0 0;
#X connect 3 0 1 0;
#X connect 3 0 2 0;
#X connect 3 0 7 1;
#X connect 3 0 25 0;
#X connect 4 0 12 0;
#X connect 4 1 5 0;
#X connect 5 0 6 1;
#X connect 6 0 22 0;
#X connect 7 0 21 0;
#X connect 8 0 3 0;
#X connect 8 0 0 0;
#X connect 9 0 1 0;
#X connect 9 0 3 0;
#X connect 10 0 4 0;
#X connect 11 0 6 0;
#X connect 11 0 7 0;
#X connect 11 0 24 0;
#X connect 24 0 23 0;
