#N canvas 796 198 450 300 10;
#X obj 58 64 inlet;
#X obj 122 222 outlet~;
#X text 45 43 KeyPressed;
#X text 164 43 KeyReleased;
#X obj 181 65 inlet;
#X msg 58 97 start;
#X msg 181 98 stop;
#X obj 113 141 s EnvelopeTrigger\$1;
#X obj 123 196 r~ Envelope\$1;
#X connect 0 0 5 0;
#X connect 4 0 6 0;
#X connect 5 0 7 0;
#X connect 6 0 7 0;
#X connect 8 0 1 0;
