#N canvas 65 54 1215 746 10;
#X msg 99 313 50 0.7;
#X msg 180 387 0 0;
#X obj 100 100 cnv 15 100 200 empty empty Input 20 12 0 14 -204800
-66577 0;
#X floatatom 652 182 5 0 0 0 - - -;
#X floatatom 963 144 5 0 0 0 - - -;
#X text 997 143 Velocity;
#X text 619 182 Tone;
#X floatatom 652 323 5 0 0 0 - - -;
#X obj 651 298 line 100 10;
#X obj 652 274 pack;
#X obj 130 165 knob 32 32 0 1 0 0 empty empty empty 0 -8 0 8 -262144
-1 -1 0 1;
#X obj 245 200 * 1000;
#X floatatom 245 221 5 0 0 0 - - -;
#X text 130 143 glide;
#X obj 245 244 s \$0glide;
#X obj 801 215 r \$0glide;
#X obj 105 273 bng 15 250 50 0 empty empty empty 17 7 0 10 -262144
-1 -1;
#X obj 126 273 bng 15 250 50 0 empty empty empty 17 7 0 10 -262144
-1 -1;
#X obj 148 273 bng 15 250 50 0 empty empty empty 17 7 0 10 -262144
-1 -1;
#X obj 174 272 bng 15 250 50 0 empty empty empty 17 7 0 10 -262144
-1 -1;
#X text 106 255 I;
#X text 124 254 IV;
#X text 143 254 VII;
#X text 169 254 Off;
#X text 115 238 Test Tones;
#X obj 652 356 s NoteIn;
#X obj 963 275 s noteOff;
#X obj 231 326 s noteOn;
#X obj 1008 245 s velIn;
#X msg 121 335 55 0.7;
#X msg 148 360 60 0.7;
#X obj 484 54 notein;
#X floatatom 479 134 5 0 0 0 - - -;
#X floatatom 515 135 5 0 0 0 - - -;
#X obj 479 180 spigot;
#X obj 515 158 != 0;
#X floatatom 479 208 5 0 0 0 - - -;
#X text 512 207 current note;
#X obj 338 230 expr if ($f1==$f2 \, 1 \, 0);
#X floatatom 338 255 5 0 0 0 - - -;
#X obj 446 329 spigot;
#X floatatom 446 354 5 0 0 0 - - -;
#X obj 500 318 spigot;
#X floatatom 500 365 5 0 0 0 - - -;
#X obj 533 262 tgl 15 0 empty empty empty 17 7 0 10 -262144 -1 -1 0
1;
#X obj 500 289 f;
#X obj 575 299 t;
#X obj 517 480 s noteOff;
#X obj 517 406 select 0;
#X obj 500 345 / 127;
#X obj 652 130 r \$0notes;
#X obj 446 415 s \$0notes;
#X obj 585 431 s \$0vel;
#X obj 99 417 unpack;
#X obj 101 504 s \$0notes;
#X obj 132 442 s \$0vel;
#X obj 963 122 r \$0vel;
#X obj 672 212 r \$0vel;
#X floatatom 738 276 5 0 0 0 - - -;
#X obj 672 238 expr if($f1>0 \, $f2 \, 0);
#X floatatom 761 498 5 0 0 0 - - -;
#X obj 562 457 s noteOn;
#X obj 963 170 select 0;
#X msg 1008 192 \$1 5;
#X obj 1008 216 line;
#X obj 652 155 select 0;
#X obj -18 153 r n1;
#X obj -8 163 r n2;
#X obj 2 173 r n3;
#X obj 12 183 r n4;
#X obj 147 482 +;
#X obj 156 213 tgl 15 0 empty empty bass 17 7 0 10 -262144 -1 -1 0
1;
#X msg 302 416 -12;
#X obj 260 455 *;
#X connect 0 0 53 0;
#X connect 1 0 53 0;
#X connect 3 0 9 0;
#X connect 4 0 62 0;
#X connect 7 0 25 0;
#X connect 8 0 7 0;
#X connect 9 0 8 0;
#X connect 10 0 11 0;
#X connect 11 0 12 0;
#X connect 12 0 14 0;
#X connect 15 0 59 1;
#X connect 16 0 0 0;
#X connect 16 0 27 0;
#X connect 17 0 29 0;
#X connect 17 0 27 0;
#X connect 18 0 30 0;
#X connect 18 0 27 0;
#X connect 19 0 1 0;
#X connect 29 0 53 0;
#X connect 30 0 53 0;
#X connect 31 0 32 0;
#X connect 31 1 33 0;
#X connect 32 0 34 0;
#X connect 32 0 38 0;
#X connect 32 0 40 0;
#X connect 33 0 35 0;
#X connect 33 0 45 1;
#X connect 34 0 36 0;
#X connect 35 0 34 1;
#X connect 36 0 38 1;
#X connect 38 0 39 0;
#X connect 39 0 40 1;
#X connect 39 0 44 0;
#X connect 40 0 41 0;
#X connect 41 0 51 0;
#X connect 42 0 49 0;
#X connect 43 0 48 0;
#X connect 44 0 42 1;
#X connect 44 0 46 0;
#X connect 45 0 42 0;
#X connect 46 0 45 0;
#X connect 48 0 47 0;
#X connect 48 1 52 0;
#X connect 48 1 61 0;
#X connect 49 0 43 0;
#X connect 50 0 65 0;
#X connect 53 0 70 0;
#X connect 53 1 55 0;
#X connect 56 0 4 0;
#X connect 57 0 59 0;
#X connect 59 0 9 1;
#X connect 59 0 58 0;
#X connect 62 0 26 0;
#X connect 62 1 63 0;
#X connect 63 0 64 0;
#X connect 64 0 28 0;
#X connect 65 1 3 0;
#X connect 66 0 16 0;
#X connect 67 0 17 0;
#X connect 68 0 18 0;
#X connect 69 0 19 0;
#X connect 70 0 54 0;
#X connect 71 0 72 0;
#X connect 71 0 73 0;
#X connect 72 0 73 1;
#X connect 73 0 70 1;
#X coords 0 -1 1 1 100 200 1 100 100;
