#N canvas 65 87 1215 718 10;
#X floatatom 100 361 5 0 0 0 - - -;
#X obj 281 490 *~;
#X obj 36 385 expr~ $v1*$f2*(1+$f3);
#X obj 281 420 wavetable~;
#X obj 219 403 phasor~;
#X obj 162 363 pow 2;
#X obj 100 315 r \$0Octave;
#X obj 337 451 r \$0Volume;
#X obj 337 473 pow 2;
#X obj 295 312 r \$0Phase;
#X obj 323 366 r \$0Wave;
#X obj 309 336 r \$0Feedback;
#X obj 37 291 r~ FrequencyIn\$1;
#X obj 600 50 cnv 15 370 120 empty empty empty 20 12 0 14 -1 -66577
0;
#X obj 609 61 cnv 15 240 100 empty \$0Canvas Oscillator 1 20 12 0 14
-66577 -262144 0;
#X obj 804 97 knob 32 32 0 1 0 0 \$0Volume \$0VolumeLoad Volume 0 45
0 8 -1 -4116 -1 0 1;
#X obj 821 68 tgl 15 1 \$0OscillatorOn \$0OscillatorOnLoad empty 17
7 0 10 -258113 -1 -1 25.5639 25.5639;
#X obj 712 93 bng 15 250 50 0 empty empty + 5 7 0 10 -1 -1 -262144
;
#X obj 620 93 bng 15 250 50 0 empty empty - 5 7 0 10 -1 -1 -262144
;
#X obj 640 93 cnv 15 70 15 empty \$1waveName Sine 5 8 0 10 -1 -262144
0;
#X obj 712 113 bng 15 250 50 0 empty empty + 5 7 0 10 -1 -1 -262144
;
#X obj 621 112 bng 15 250 50 0 empty empty - 5 7 0 10 -1 -1 -262144
;
#X obj 640 131 hsl 70 10 0 1 0 0 \$0Phase \$0PhaseLoad Phase 20 5 0
10 -99865 -1 -1 0 1;
#X obj 859 61 cnv 15 100 100 \$0Delay \$0DelayOn empty 20 12 0 14 -66577
-66577 0;
#X obj 880 66 vsl 10 60 0 1 0 0 \$0Attack \$0AttackLoad empty 0 -9
0 10 -228856 -1 -1 0 1;
#X obj 894 66 vsl 10 60 0 1 0 0 \$0Decay \$0DecayLoad empty 0 -9 0
10 -162280 -1 -1 0 1;
#X obj 909 66 vsl 10 60 0 1 0 0 \$0Sustain \$0SustainLoad empty 0 -9
0 10 -228856 -1 -1 0 1;
#X obj 923 66 vsl 10 60 0 1 0 0 \$0Release \$0ReleaseLoad empty 0 -9
0 10 -162280 -1 -1 0 1;
#X text 880 125 A;
#X text 893 125 D;
#X text 909 125 S;
#X text 922 125 R;
#X obj 865 66 vsl 10 60 0 1 0 0 \$0Delay \$0DelayLoad empty 0 -9 0
10 -162280 -1 -1 0 1;
#X text 866 126 D;
#X obj 868 143 hsl 65 12 0 1 0 0 \$0Slope \$0SlopeLoad Slope 15 6 0
10 -128992 -1 -1 0 1;
#X obj 939 63 tgl 15 1 \$0ADSROn \$0ADSROnLoad empty 17 7 0 10 -258113
-1 -1 0 25.5639;
#X msg 331 156 vis_size 70 15;
#X msg 331 130 color 22;
#X obj 331 56 loadbang;
#X msg 331 79 label_font 0 10;
#X msg 331 105 label_pos 5 8;
#X obj 639 112 cnv 15 70 15 empty \$0octaveCanvas Octave 1 5 8 0 10
-1 -262144 0;
#X obj 251 187 s \$0octaveCanvas;
#N canvas 65 87 1215 718 waves 0;
#X obj 381 230 select 0 1 2 3 4 5 6;
#X msg 381 252 Sine;
#X msg 396 275 Triangle;
#X obj 386 370 l2s;
#X msg 414 297 Square;
#X msg 431 321 Saw;
#X obj 381 167 counter 0 5;
#X msg 381 141 inc;
#X msg 417 141 dec;
#X floatatom 381 196 5 0 0 0 - - -;
#X msg 455 342 Gaussian;
#X msg 523 346 Noise;
#X obj 215 165 loadbang;
#N canvas 65 54 1215 746 waves 0;
#X obj 136 54 inlet;
#X obj 146 64 inlet;
#X obj 156 74 inlet;
#X obj 166 84 inlet;
#X obj 176 94 inlet;
#X obj 186 104 inlet;
#X msg 96 139 Sine;
#X msg 111 162 Triangle;
#X msg 129 186 Square;
#X msg 146 208 Saw;
#X msg 170 229 Gaussian;
#X msg 208 263 Noise;
#X obj 133 287 outlet;
#X connect 0 0 6 0;
#X connect 1 0 7 0;
#X connect 2 0 8 0;
#X connect 3 0 9 0;
#X connect 4 0 10 0;
#X connect 5 0 11 0;
#X connect 6 0 12 0;
#X connect 7 0 12 0;
#X connect 8 0 12 0;
#X connect 9 0 12 0;
#X connect 10 0 12 0;
#X connect 11 0 12 0;
#X restore 551 280 pd waves;
#X obj 491 159 bng 15 250 50 0 empty empty empty 17 7 0 10 -262144
-1 -1;
#X obj 378 82 inlet;
#X obj 417 83 inlet;
#X obj 491 101 inlet;
#X msg 491 135 set \$1;
#X obj 385 468 s \$1waveName;
#X msg 386 408 label \$1;
#X obj 272 337 outlet;
#X connect 0 0 1 0;
#X connect 0 1 2 0;
#X connect 0 2 4 0;
#X connect 0 3 5 0;
#X connect 0 4 10 0;
#X connect 0 5 11 0;
#X connect 1 0 3 0;
#X connect 2 0 3 0;
#X connect 3 0 20 0;
#X connect 4 0 3 0;
#X connect 5 0 3 0;
#X connect 6 0 9 0;
#X connect 7 0 6 0;
#X connect 8 0 6 0;
#X connect 9 0 0 0;
#X connect 9 0 21 0;
#X connect 10 0 3 0;
#X connect 11 0 3 0;
#X connect 12 0 1 0;
#X connect 14 0 6 0;
#X connect 15 0 7 0;
#X connect 16 0 8 0;
#X connect 17 0 18 0;
#X connect 18 0 6 0;
#X connect 18 0 14 0;
#X connect 20 0 19 0;
#X restore 717 211 pd waves \$0;
#X obj 752 69 knob 26 26 0 1 0 0 \$0Detune \$0DetuneLoad Detune -6
35 0 8 -1 -4116 -1 0 1;
#X obj 751 114 knob 26 26 0 1 0 0 \$0Feedback \$0FeedbackLoad Feedback
-10 35 0 8 -1 -4116 -1 0 1;
#X obj 780 187 r load wave;
#X floatatom 717 233 5 0 0 0 - - -;
#N canvas 827 334 450 407 octave 0;
#X obj 125 59 inlet;
#X obj 167 57 inlet;
#X obj 223 58 inlet;
#X obj 156 302 l2s;
#X msg 125 143 inc;
#X msg 167 144 dec;
#X floatatom 156 255 5 0 0 0 - - -;
#X obj 125 179 counter 0 16;
#X obj 200 205 loadbang;
#X msg 156 279 Octave \$1;
#X msg 156 323 label \$1;
#X obj 156 346 s \$0octaveCanvas;
#X msg 278 130 set \$1;
#X obj 276 156 bng 15 250 50 0 empty empty empty 17 7 0 10 -262144
-1 -1;
#X obj 60 103 loadbang;
#X obj 61 232 outlet;
#X connect 0 0 4 0;
#X connect 1 0 5 0;
#X connect 2 0 12 0;
#X connect 3 0 10 0;
#X connect 4 0 7 0;
#X connect 5 0 7 0;
#X connect 6 0 9 0;
#X connect 7 0 15 0;
#X connect 7 0 6 0;
#X connect 8 0 6 0;
#X connect 9 0 3 0;
#X connect 10 0 11 0;
#X connect 12 0 7 0;
#X connect 12 0 13 0;
#X connect 13 0 7 0;
#X connect 14 0 7 0;
#X restore 584 205 pd octave \$0;
#X obj 653 177 r load octave;
#X floatatom 667 484 5 0 0 0 - - -;
#X floatatom 712 483 5 0 0 0 - - -;
#X floatatom 759 481 5 0 0 0 - - -;
#X floatatom 810 481 5 0 0 0 - - -;
#X obj 667 420 pow 2;
#X obj 667 440 * 1990;
#X obj 667 461 + 10;
#X obj 712 443 * 1990;
#X obj 712 464 + 10;
#X obj 810 420 pow 2;
#X obj 810 440 * 1990;
#X obj 810 461 + 10;
#X obj 889 458 + 0.25;
#X obj 889 437 * 3.75;
#X floatatom 889 483 5 0 0 0 - - -;
#X obj 889 413 pow 2;
#X obj 729 596 adsr~ 1000;
#X obj 962 518 tgl 15 0 empty empty empty 17 7 0 10 -262144 -1 -1 0
25.5639;
#X obj 712 423 pow 2;
#X obj 759 421 pow 2;
#X obj 667 330 r \$0Attack;
#X obj 712 352 r \$0Decay;
#X obj 889 373 r \$0Slope;
#X obj 1018 214 Save \$0Attack;
#X obj 1018 296 Save \$0Slope;
#X obj 1018 276 Save \$0Release;
#X obj 1019 256 Save \$0Sustain;
#X obj 1018 235 Save \$0Decay;
#X obj 759 376 r \$0Sustain;
#X obj 811 396 r \$0Release;
#N canvas 830 500 450 300 init 0;
#X obj 138 199 s \$0Canvas;
#X msg 138 175 label \$1;
#X obj 138 151 l2s;
#X obj 138 75 loadbang;
#X msg 138 127 Oscillator \$1;
#X obj 138 102 \$1;
#X obj 257 92 loadbang;
#X msg 257 115 label_font 0 10;
#X msg 257 141 label_pos 5 8;
#X obj 253 224 s \$0Canvas;
#X msg 257 166 color 2;
#X msg 257 192 vis_size 240 100;
#X connect 1 0 0 0;
#X connect 2 0 1 0;
#X connect 3 0 5 0;
#X connect 4 0 2 0;
#X connect 5 0 4 0;
#X connect 6 0 7 0;
#X connect 7 0 8 0;
#X connect 8 0 10 0;
#X connect 10 0 11 0;
#X connect 10 0 9 0;
#X connect 11 0 9 0;
#X restore 864 189 pd init;
#X obj 1019 193 Save \$0Delay;
#X obj 456 603 *~;
#X obj 435 636 s~ OscillatorOut\$1;
#X obj 580 242 select 0;
#X msg 573 270 0.5;
#X obj 581 313 s \$0Octave;
#X floatatom 605 286 5 0 0 0 - - -;
#X obj 162 338 r \$0Detune;
#X obj 1016 151 Save \$0OscillatorOn;
#X obj 1018 315 Save \$0ADSROn;
#X obj 1011 25 Save \$0Wave;
#X obj 1012 46 Save \$0Octave;
#X obj 1013 66 Save \$0Frequency;
#X obj 1014 88 Save \$0Phase;
#X obj 1015 108 Save \$0Feedback;
#X obj 1015 131 Save \$0Volume;
#X msg 575 518 start;
#X floatatom 408 512 5 0 0 0 - - -;
#X floatatom 429 384 5 0 0 0 - - -;
#X floatatom 255 344 5 0 0 0 - - -;
#X obj 715 263 s \$0Wave;
#X floatatom 166 449 5 0 0 0 - - -;
#X msg 572 550 stop;
#X obj 564 379 r \$0Delay;
#X obj 491 459 bng 15 250 50 0 empty empty empty 17 7 0 10 -262144
-1 -1;
#X obj 495 488 delay;
#X floatatom 563 461 5 0 0 0 - - -;
#X obj 563 397 pow 2;
#X obj 563 417 * 1990;
#X obj 563 438 + 10;
#X obj 964 350 r \$0ADSROn;
#X obj 338 389 r \$0OscillatorOn;
#X obj 490 436 r kp;
#X obj 514 534 r kr;
#X connect 0 0 2 1;
#X connect 1 0 82 0;
#X connect 2 0 4 0;
#X connect 3 0 1 0;
#X connect 4 0 3 0;
#X connect 5 0 2 2;
#X connect 5 0 102 0;
#X connect 6 0 0 0;
#X connect 7 0 8 0;
#X connect 8 0 1 1;
#X connect 8 0 98 0;
#X connect 9 0 3 1;
#X connect 9 0 100 0;
#X connect 10 0 3 3;
#X connect 11 0 3 2;
#X connect 11 0 99 0;
#X connect 12 0 2 0;
#X connect 17 0 43 0;
#X connect 18 0 43 1;
#X connect 20 0 48 0;
#X connect 21 0 48 1;
#X connect 36 0 42 0;
#X connect 37 0 36 0;
#X connect 37 0 42 0;
#X connect 38 0 39 0;
#X connect 39 0 40 0;
#X connect 39 0 42 0;
#X connect 40 0 37 0;
#X connect 40 0 42 0;
#X connect 43 0 47 0;
#X connect 46 0 43 2;
#X connect 47 0 101 0;
#X connect 48 0 84 0;
#X connect 49 0 48 2;
#X connect 50 0 66 1;
#X connect 51 0 66 2;
#X connect 52 0 66 3;
#X connect 53 0 66 4;
#X connect 54 0 55 0;
#X connect 55 0 56 0;
#X connect 56 0 50 0;
#X connect 57 0 58 0;
#X connect 58 0 51 0;
#X connect 59 0 60 0;
#X connect 60 0 61 0;
#X connect 61 0 53 0;
#X connect 62 0 64 0;
#X connect 63 0 62 0;
#X connect 64 0 66 5;
#X connect 65 0 63 0;
#X connect 66 0 82 1;
#X connect 67 0 66 6;
#X connect 68 0 57 0;
#X connect 69 0 52 0;
#X connect 70 0 54 0;
#X connect 71 0 68 0;
#X connect 72 0 65 0;
#X connect 78 0 69 0;
#X connect 79 0 59 0;
#X connect 82 0 83 0;
#X connect 84 0 85 0;
#X connect 84 1 87 0;
#X connect 85 0 87 0;
#X connect 87 0 86 0;
#X connect 88 0 5 0;
#X connect 97 0 66 0;
#X connect 103 0 66 0;
#X connect 104 0 108 0;
#X connect 105 0 106 0;
#X connect 106 0 97 0;
#X connect 107 0 106 1;
#X connect 108 0 109 0;
#X connect 109 0 110 0;
#X connect 110 0 107 0;
#X connect 111 0 67 0;
#X connect 112 0 3 4;
#X connect 113 0 105 0;
#X connect 114 0 103 0;
#X coords 0 -1 1 1 370 120 2 600 50;
