#N canvas 188 121 1215 718 10;
#X obj 100 100 cnv 15 100 200 empty empty Output 20 12 1 14 -220859
-66577 0;
#X obj 125 194 vu 15 80 \$0VuLeft empty -1 -8 0 10 -66577 -1 0 0;
#X obj 131 151 knob 32 32 0 1 0 1 \$0Volume \$0VolumeLoad empty 0 -8
0 8 -262144 -1 -1 100 1;
#X obj 179 115 tgl 15 1 \$0On \$0OnLoad empty 17 7 0 10 -24198 -33289
-33289 2 2;
#X obj 153 195 vu 15 80 \$0VuRight empty -1 -8 0 10 -66577 -1 0 0;
#X text 126 133 Volume;
#X text 539 101 DSP;
#X text 245 297 VuMeterL;
#X text 367 296 VuMeterR;
#X obj 242 231 env~;
#X obj 242 252 - 100;
#X obj 242 194 *~;
#X obj 299 227 dac~;
#X obj 363 193 *~;
#X obj 363 228 env~;
#X obj 363 249 - 100;
#X obj 292 161 r \$0Volume;
#X obj 316 95 Save \$0Volume;
#X obj 538 125 r \$0On;
#X msg 618 142 \; pd dsp \$1;
#X obj 242 279 s \$0VuLeft;
#X obj 363 277 s \$0VuRight;
#X obj 474 211 spigot;
#X obj 474 183 b;
#X msg 474 236 color 73 12 12;
#X msg 580 238 color 76 12 12;
#X obj 514 283 s \$0OnLoad;
#X obj 580 216 spigot;
#X obj 580 194 b;
#X obj 612 195 == 0;
#X obj 507 184 != 0;
#X obj 243 127 r~ OutputL;
#X obj 364 131 r~ OutputR;
#X obj 432 131 inlet~;
#X connect 9 0 10 0;
#X connect 10 0 20 0;
#X connect 11 0 12 0;
#X connect 11 0 9 0;
#X connect 13 0 12 1;
#X connect 13 0 14 0;
#X connect 14 0 15 0;
#X connect 15 0 21 0;
#X connect 16 0 11 1;
#X connect 16 0 13 1;
#X connect 18 0 23 0;
#X connect 18 0 28 0;
#X connect 18 0 19 0;
#X connect 18 0 29 0;
#X connect 18 0 30 0;
#X connect 22 0 24 0;
#X connect 23 0 22 0;
#X connect 24 0 26 0;
#X connect 25 0 26 0;
#X connect 27 0 25 0;
#X connect 28 0 27 0;
#X connect 29 0 27 1;
#X connect 30 0 22 1;
#X connect 31 0 11 0;
#X connect 32 0 13 0;
#X connect 33 0 13 0;
#X coords 0 -1 1 1 100 200 1 100 100;
