#N canvas 65 82 1215 718 10;
#N canvas 65 82 450 300 (subpatch) 0;
#X array SampleRead 63393 float 2;
#X coords 0 1 63393 -1 150 100 2 0 0;
#X restore 117 37 graph;
#X obj 47 113 bng 20 250 50 0 empty empty Load_Sample -15 -15 0 10
-260097 -1 -1;
#X obj 47 158 openpanel;
#X obj 47 205 soundfiler;
#X msg 47 181 read -resize \$1 SampleRead;
#X floatatom 47 231 5 0 0 0 - - -;
#X obj 47 257 outlet;
#X connect 1 0 2 0;
#X connect 2 0 4 0;
#X connect 3 0 5 0;
#X connect 4 0 3 0;
#X connect 5 0 6 0;
#X coords 0 -1 1 1 250 120 1 20 20;
