#N canvas 806 167 450 300 10;
#X obj 51 65 inlet~;
#X obj 292 62 inlet~;
#X obj 183 63 inlet;
#X obj 174 206 outlet~;
#X obj 52 91 s~ FilterInput\$1;
#X obj 183 99 s FilterNote\$1;
#X obj 293 104 s~ FilterEnvelope\$1;
#X obj 232 46 loadbang;
#X msg 232 68 440;
#X obj 174 182 r~ FilterOutput\$1;
#X obj 359 48 loadbang;
#X msg 359 73 1;
#X connect 0 0 4 0;
#X connect 1 0 6 0;
#X connect 2 0 5 0;
#X connect 7 0 8 0;
#X connect 8 0 5 0;
#X connect 9 0 3 0;
#X connect 10 0 11 0;
#X connect 11 0 6 0;
