#N canvas 65 92 1215 718 10;
#X obj 427 198 + 1;
#X obj 459 198 - 1;
#X obj 385 199 f 0;
#X obj 170 213 sel \$1;
#X obj 385 137 r +\$1\$2;
#X obj 170 191 r step\$2;
#X obj 475 233 s SeqNote\$1\$2;
#X obj 459 138 r -\$1\$2;
#X obj 370 315 s SeqNote\$2;
#X text 475 247 Display pitch;
#X text 369 331 Send pitch;
#X obj 170 233 b;
#X obj 370 250 f 0;
#X obj 740 203 save \$0Step;
#X obj 287 161 r \$0StepLoad;
#X floatatom 287 206 5 0 0 0 - - -;
#X obj 459 291 s \$0Step;
#X floatatom 386 227 5 0 0 0 - - -;
#X obj 588 182 r SeqVel\$1\$2;
#X floatatom 588 207 5 0 0 0 - - -;
#X obj 170 255 s SeqVel\$1\$2Load;
#X obj 649 285 bng 15 250 50 0 empty empty empty 17 7 0 10 -262144
-1 -1;
#X obj 157 281 bng 15 250 50 0 empty empty empty 17 7 0 10 -262144
-1 -1;
#X floatatom 95 220 5 0 0 0 - - -;
#X obj 589 238 s SeqVel\$2;
#X obj 741 227 save SeqVel\$1\$2;
#X connect 0 0 2 1;
#X connect 1 0 2 1;
#X connect 2 0 0 0;
#X connect 2 0 1 0;
#X connect 2 0 6 0;
#X connect 2 0 17 0;
#X connect 3 0 11 0;
#X connect 4 0 0 0;
#X connect 4 0 2 0;
#X connect 5 0 3 0;
#X connect 5 0 23 0;
#X connect 7 0 2 0;
#X connect 7 0 1 0;
#X connect 11 0 20 0;
#X connect 11 0 12 0;
#X connect 11 0 22 0;
#X connect 12 0 8 0;
#X connect 14 0 2 0;
#X connect 14 0 15 0;
#X connect 17 0 12 1;
#X connect 17 0 16 0;
#X connect 18 0 19 0;
#X connect 18 0 21 0;
#X connect 19 0 24 0;
