#N canvas 648 180 450 300 10;
#X obj 88 49 inlet;
#X obj 58 155 outlet;
#X obj 172 152 outlet~;
#X text 171 173 Velocity;
#X text 52 170 Frequency;
#X obj 88 73 s NoteIn\$1;
#X obj 172 123 r~ SeqVelOut\$1;
#X obj 58 129 r SeqNoteOut\$1;
#X connect 0 0 5 0;
#X connect 6 0 2 0;
#X connect 7 0 1 0;
